<?xml version="1.0" encoding="utf-8" standalone="no"?>
<!DOCTYPE svg PUBLIC "-//W3C//DTD SVG 1.1//EN"
  "http://www.w3.org/Graphics/SVG/1.1/DTD/svg11.dtd">
<svg xmlns:xlink="http://www.w3.org/1999/xlink" width="1843.2pt" height="955.44pt" viewBox="0 0 1843.2 955.44" xmlns="http://www.w3.org/2000/svg" version="1.1">
 <metadata>
  <rdf:RDF xmlns:dc="http://purl.org/dc/elements/1.1/" xmlns:cc="http://creativecommons.org/ns#" xmlns:rdf="http://www.w3.org/1999/02/22-rdf-syntax-ns#">
   <cc:Work>
    <dc:type rdf:resource="http://purl.org/dc/dcmitype/StillImage"/>
    <dc:date>2024-04-29T11:04:35.723180</dc:date>
    <dc:format>image/svg+xml</dc:format>
    <dc:creator>
     <cc:Agent>
      <dc:title>Matplotlib v3.8.4, https://matplotlib.org/</dc:title>
     </cc:Agent>
    </dc:creator>
   </cc:Work>
  </rdf:RDF>
 </metadata>
 <defs>
  <style type="text/css">*{stroke-linejoin: round; stroke-linecap: butt}</style>
 </defs>
 <g id="figure_1">
  <g id="patch_1">
   <path d="M 0 955.44 
L 1843.2 955.44 
L 1843.2 0 
L 0 0 
z
" style="fill: #ffffff"/>
  </g>
  <g id="axes_1">
   <g id="patch_2">
    <path d="M 230.4 850.3416 
L 1658.88 850.3416 
L 1658.88 114.6528 
L 230.4 114.6528 
z
" style="fill: #ffffff"/>
   </g>
   <g id="matplotlib.axis_1">
    <g id="xtick_1">
     <g id="line2d_1">
      <defs>
       <path id="m46d775ea45" d="M 0 0 
L 0 3.5 
" style="stroke: #000000; stroke-width: 0.8"/>
      </defs>
      <g>
       <use xlink:href="#m46d775ea45" x="295.330909" y="850.3416" style="stroke: #000000; stroke-width: 0.8"/>
      </g>
     </g>
     <g id="text_1">
      <!-- 0.9800 -->
      <g transform="translate(277.835597 864.940038) scale(0.1 -0.1)">
       <defs>
        <path id="DejaVuSans-30" d="M 2034 4250 
Q 1547 4250 1301 3770 
Q 1056 3291 1056 2328 
Q 1056 1369 1301 889 
Q 1547 409 2034 409 
Q 2525 409 2770 889 
Q 3016 1369 3016 2328 
Q 3016 3291 2770 3770 
Q 2525 4250 2034 4250 
z
M 2034 4750 
Q 2819 4750 3233 4129 
Q 3647 3509 3647 2328 
Q 3647 1150 3233 529 
Q 2819 -91 2034 -91 
Q 1250 -91 836 529 
Q 422 1150 422 2328 
Q 422 3509 836 4129 
Q 1250 4750 2034 4750 
z
" transform="scale(0.015625)"/>
        <path id="DejaVuSans-2e" d="M 684 794 
L 1344 794 
L 1344 0 
L 684 0 
L 684 794 
z
" transform="scale(0.015625)"/>
        <path id="DejaVuSans-39" d="M 703 97 
L 703 672 
Q 941 559 1184 500 
Q 1428 441 1663 441 
Q 2288 441 2617 861 
Q 2947 1281 2994 2138 
Q 2813 1869 2534 1725 
Q 2256 1581 1919 1581 
Q 1219 1581 811 2004 
Q 403 2428 403 3163 
Q 403 3881 828 4315 
Q 1253 4750 1959 4750 
Q 2769 4750 3195 4129 
Q 3622 3509 3622 2328 
Q 3622 1225 3098 567 
Q 2575 -91 1691 -91 
Q 1453 -91 1209 -44 
Q 966 3 703 97 
z
M 1959 2075 
Q 2384 2075 2632 2365 
Q 2881 2656 2881 3163 
Q 2881 3666 2632 3958 
Q 2384 4250 1959 4250 
Q 1534 4250 1286 3958 
Q 1038 3666 1038 3163 
Q 1038 2656 1286 2365 
Q 1534 2075 1959 2075 
z
" transform="scale(0.015625)"/>
        <path id="DejaVuSans-38" d="M 2034 2216 
Q 1584 2216 1326 1975 
Q 1069 1734 1069 1313 
Q 1069 891 1326 650 
Q 1584 409 2034 409 
Q 2484 409 2743 651 
Q 3003 894 3003 1313 
Q 3003 1734 2745 1975 
Q 2488 2216 2034 2216 
z
M 1403 2484 
Q 997 2584 770 2862 
Q 544 3141 544 3541 
Q 544 4100 942 4425 
Q 1341 4750 2034 4750 
Q 2731 4750 3128 4425 
Q 3525 4100 3525 3541 
Q 3525 3141 3298 2862 
Q 3072 2584 2669 2484 
Q 3125 2378 3379 2068 
Q 3634 1759 3634 1313 
Q 3634 634 3220 271 
Q 2806 -91 2034 -91 
Q 1263 -91 848 271 
Q 434 634 434 1313 
Q 434 1759 690 2068 
Q 947 2378 1403 2484 
z
M 1172 3481 
Q 1172 3119 1398 2916 
Q 1625 2713 2034 2713 
Q 2441 2713 2670 2916 
Q 2900 3119 2900 3481 
Q 2900 3844 2670 4047 
Q 2441 4250 2034 4250 
Q 1625 4250 1398 4047 
Q 1172 3844 1172 3481 
z
" transform="scale(0.015625)"/>
       </defs>
       <use xlink:href="#DejaVuSans-30"/>
       <use xlink:href="#DejaVuSans-2e" x="63.623047"/>
       <use xlink:href="#DejaVuSans-39" x="95.410156"/>
       <use xlink:href="#DejaVuSans-38" x="159.033203"/>
       <use xlink:href="#DejaVuSans-30" x="222.65625"/>
       <use xlink:href="#DejaVuSans-30" x="286.279297"/>
      </g>
     </g>
    </g>
    <g id="xtick_2">
     <g id="line2d_2">
      <g>
       <use xlink:href="#m46d775ea45" x="467.105801" y="850.3416" style="stroke: #000000; stroke-width: 0.8"/>
      </g>
     </g>
     <g id="text_2">
      <!-- 0.9825 -->
      <g transform="translate(449.610488 864.940038) scale(0.1 -0.1)">
       <defs>
        <path id="DejaVuSans-32" d="M 1228 531 
L 3431 531 
L 3431 0 
L 469 0 
L 469 531 
Q 828 903 1448 1529 
Q 2069 2156 2228 2338 
Q 2531 2678 2651 2914 
Q 2772 3150 2772 3378 
Q 2772 3750 2511 3984 
Q 2250 4219 1831 4219 
Q 1534 4219 1204 4116 
Q 875 4013 500 3803 
L 500 4441 
Q 881 4594 1212 4672 
Q 1544 4750 1819 4750 
Q 2544 4750 2975 4387 
Q 3406 4025 3406 3419 
Q 3406 3131 3298 2873 
Q 3191 2616 2906 2266 
Q 2828 2175 2409 1742 
Q 1991 1309 1228 531 
z
" transform="scale(0.015625)"/>
        <path id="DejaVuSans-35" d="M 691 4666 
L 3169 4666 
L 3169 4134 
L 1269 4134 
L 1269 2991 
Q 1406 3038 1543 3061 
Q 1681 3084 1819 3084 
Q 2600 3084 3056 2656 
Q 3513 2228 3513 1497 
Q 3513 744 3044 326 
Q 2575 -91 1722 -91 
Q 1428 -91 1123 -41 
Q 819 9 494 109 
L 494 744 
Q 775 591 1075 516 
Q 1375 441 1709 441 
Q 2250 441 2565 725 
Q 2881 1009 2881 1497 
Q 2881 1984 2565 2268 
Q 2250 2553 1709 2553 
Q 1456 2553 1204 2497 
Q 953 2441 691 2322 
L 691 4666 
z
" transform="scale(0.015625)"/>
       </defs>
       <use xlink:href="#DejaVuSans-30"/>
       <use xlink:href="#DejaVuSans-2e" x="63.623047"/>
       <use xlink:href="#DejaVuSans-39" x="95.410156"/>
       <use xlink:href="#DejaVuSans-38" x="159.033203"/>
       <use xlink:href="#DejaVuSans-32" x="222.65625"/>
       <use xlink:href="#DejaVuSans-35" x="286.279297"/>
      </g>
     </g>
    </g>
    <g id="xtick_3">
     <g id="line2d_3">
      <g>
       <use xlink:href="#m46d775ea45" x="638.880693" y="850.3416" style="stroke: #000000; stroke-width: 0.8"/>
      </g>
     </g>
     <g id="text_3">
      <!-- 0.9850 -->
      <g transform="translate(621.38538 864.940038) scale(0.1 -0.1)">
       <use xlink:href="#DejaVuSans-30"/>
       <use xlink:href="#DejaVuSans-2e" x="63.623047"/>
       <use xlink:href="#DejaVuSans-39" x="95.410156"/>
       <use xlink:href="#DejaVuSans-38" x="159.033203"/>
       <use xlink:href="#DejaVuSans-35" x="222.65625"/>
       <use xlink:href="#DejaVuSans-30" x="286.279297"/>
      </g>
     </g>
    </g>
    <g id="xtick_4">
     <g id="line2d_4">
      <g>
       <use xlink:href="#m46d775ea45" x="810.655584" y="850.3416" style="stroke: #000000; stroke-width: 0.8"/>
      </g>
     </g>
     <g id="text_4">
      <!-- 0.9875 -->
      <g transform="translate(793.160272 864.940038) scale(0.1 -0.1)">
       <defs>
        <path id="DejaVuSans-37" d="M 525 4666 
L 3525 4666 
L 3525 4397 
L 1831 0 
L 1172 0 
L 2766 4134 
L 525 4134 
L 525 4666 
z
" transform="scale(0.015625)"/>
       </defs>
       <use xlink:href="#DejaVuSans-30"/>
       <use xlink:href="#DejaVuSans-2e" x="63.623047"/>
       <use xlink:href="#DejaVuSans-39" x="95.410156"/>
       <use xlink:href="#DejaVuSans-38" x="159.033203"/>
       <use xlink:href="#DejaVuSans-37" x="222.65625"/>
       <use xlink:href="#DejaVuSans-35" x="286.279297"/>
      </g>
     </g>
    </g>
    <g id="xtick_5">
     <g id="line2d_5">
      <g>
       <use xlink:href="#m46d775ea45" x="982.430476" y="850.3416" style="stroke: #000000; stroke-width: 0.8"/>
      </g>
     </g>
     <g id="text_5">
      <!-- 0.9900 -->
      <g transform="translate(964.935164 864.940038) scale(0.1 -0.1)">
       <use xlink:href="#DejaVuSans-30"/>
       <use xlink:href="#DejaVuSans-2e" x="63.623047"/>
       <use xlink:href="#DejaVuSans-39" x="95.410156"/>
       <use xlink:href="#DejaVuSans-39" x="159.033203"/>
       <use xlink:href="#DejaVuSans-30" x="222.65625"/>
       <use xlink:href="#DejaVuSans-30" x="286.279297"/>
      </g>
     </g>
    </g>
    <g id="xtick_6">
     <g id="line2d_6">
      <g>
       <use xlink:href="#m46d775ea45" x="1154.205368" y="850.3416" style="stroke: #000000; stroke-width: 0.8"/>
      </g>
     </g>
     <g id="text_6">
      <!-- 0.9925 -->
      <g transform="translate(1136.710055 864.940038) scale(0.1 -0.1)">
       <use xlink:href="#DejaVuSans-30"/>
       <use xlink:href="#DejaVuSans-2e" x="63.623047"/>
       <use xlink:href="#DejaVuSans-39" x="95.410156"/>
       <use xlink:href="#DejaVuSans-39" x="159.033203"/>
       <use xlink:href="#DejaVuSans-32" x="222.65625"/>
       <use xlink:href="#DejaVuSans-35" x="286.279297"/>
      </g>
     </g>
    </g>
    <g id="xtick_7">
     <g id="line2d_7">
      <g>
       <use xlink:href="#m46d775ea45" x="1325.98026" y="850.3416" style="stroke: #000000; stroke-width: 0.8"/>
      </g>
     </g>
     <g id="text_7">
      <!-- 0.9950 -->
      <g transform="translate(1308.484947 864.940038) scale(0.1 -0.1)">
       <use xlink:href="#DejaVuSans-30"/>
       <use xlink:href="#DejaVuSans-2e" x="63.623047"/>
       <use xlink:href="#DejaVuSans-39" x="95.410156"/>
       <use xlink:href="#DejaVuSans-39" x="159.033203"/>
       <use xlink:href="#DejaVuSans-35" x="222.65625"/>
       <use xlink:href="#DejaVuSans-30" x="286.279297"/>
      </g>
     </g>
    </g>
    <g id="xtick_8">
     <g id="line2d_8">
      <g>
       <use xlink:href="#m46d775ea45" x="1497.755152" y="850.3416" style="stroke: #000000; stroke-width: 0.8"/>
      </g>
     </g>
     <g id="text_8">
      <!-- 0.9975 -->
      <g transform="translate(1480.259839 864.940038) scale(0.1 -0.1)">
       <use xlink:href="#DejaVuSans-30"/>
       <use xlink:href="#DejaVuSans-2e" x="63.623047"/>
       <use xlink:href="#DejaVuSans-39" x="95.410156"/>
       <use xlink:href="#DejaVuSans-39" x="159.033203"/>
       <use xlink:href="#DejaVuSans-37" x="222.65625"/>
       <use xlink:href="#DejaVuSans-35" x="286.279297"/>
      </g>
     </g>
    </g>
    <g id="text_9">
     <!-- alpha -->
     <g transform="translate(930.779844 878.618162) scale(0.1 -0.1)">
      <defs>
       <path id="DejaVuSans-61" d="M 2194 1759 
Q 1497 1759 1228 1600 
Q 959 1441 959 1056 
Q 959 750 1161 570 
Q 1363 391 1709 391 
Q 2188 391 2477 730 
Q 2766 1069 2766 1631 
L 2766 1759 
L 2194 1759 
z
M 3341 1997 
L 3341 0 
L 2766 0 
L 2766 531 
Q 2569 213 2275 61 
Q 1981 -91 1556 -91 
Q 1019 -91 701 211 
Q 384 513 384 1019 
Q 384 1609 779 1909 
Q 1175 2209 1959 2209 
L 2766 2209 
L 2766 2266 
Q 2766 2663 2505 2880 
Q 2244 3097 1772 3097 
Q 1472 3097 1187 3025 
Q 903 2953 641 2809 
L 641 3341 
Q 956 3463 1253 3523 
Q 1550 3584 1831 3584 
Q 2591 3584 2966 3190 
Q 3341 2797 3341 1997 
z
" transform="scale(0.015625)"/>
       <path id="DejaVuSans-6c" d="M 603 4863 
L 1178 4863 
L 1178 0 
L 603 0 
L 603 4863 
z
" transform="scale(0.015625)"/>
       <path id="DejaVuSans-70" d="M 1159 525 
L 1159 -1331 
L 581 -1331 
L 581 3500 
L 1159 3500 
L 1159 2969 
Q 1341 3281 1617 3432 
Q 1894 3584 2278 3584 
Q 2916 3584 3314 3078 
Q 3713 2572 3713 1747 
Q 3713 922 3314 415 
Q 2916 -91 2278 -91 
Q 1894 -91 1617 61 
Q 1341 213 1159 525 
z
M 3116 1747 
Q 3116 2381 2855 2742 
Q 2594 3103 2138 3103 
Q 1681 3103 1420 2742 
Q 1159 2381 1159 1747 
Q 1159 1113 1420 752 
Q 1681 391 2138 391 
Q 2594 391 2855 752 
Q 3116 1113 3116 1747 
z
" transform="scale(0.015625)"/>
       <path id="DejaVuSans-68" d="M 3513 2113 
L 3513 0 
L 2938 0 
L 2938 2094 
Q 2938 2591 2744 2837 
Q 2550 3084 2163 3084 
Q 1697 3084 1428 2787 
Q 1159 2491 1159 1978 
L 1159 0 
L 581 0 
L 581 4863 
L 1159 4863 
L 1159 2956 
Q 1366 3272 1645 3428 
Q 1925 3584 2291 3584 
Q 2894 3584 3203 3211 
Q 3513 2838 3513 2113 
z
" transform="scale(0.015625)"/>
      </defs>
      <use xlink:href="#DejaVuSans-61"/>
      <use xlink:href="#DejaVuSans-6c" x="61.279297"/>
      <use xlink:href="#DejaVuSans-70" x="89.0625"/>
      <use xlink:href="#DejaVuSans-68" x="152.539062"/>
      <use xlink:href="#DejaVuSans-61" x="215.917969"/>
     </g>
    </g>
   </g>
   <g id="matplotlib.axis_2">
    <g id="ytick_1">
     <g id="line2d_9">
      <defs>
       <path id="m28d1b673d6" d="M 0 0 
L -3.5 0 
" style="stroke: #000000; stroke-width: 0.8"/>
      </defs>
      <g>
       <use xlink:href="#m28d1b673d6" x="230.4" y="755.452956" style="stroke: #000000; stroke-width: 0.8"/>
      </g>
     </g>
     <g id="text_10">
      <!-- 0.35 -->
      <g transform="translate(201.134375 759.252175) scale(0.1 -0.1)">
       <defs>
        <path id="DejaVuSans-33" d="M 2597 2516 
Q 3050 2419 3304 2112 
Q 3559 1806 3559 1356 
Q 3559 666 3084 287 
Q 2609 -91 1734 -91 
Q 1441 -91 1130 -33 
Q 819 25 488 141 
L 488 750 
Q 750 597 1062 519 
Q 1375 441 1716 441 
Q 2309 441 2620 675 
Q 2931 909 2931 1356 
Q 2931 1769 2642 2001 
Q 2353 2234 1838 2234 
L 1294 2234 
L 1294 2753 
L 1863 2753 
Q 2328 2753 2575 2939 
Q 2822 3125 2822 3475 
Q 2822 3834 2567 4026 
Q 2313 4219 1838 4219 
Q 1578 4219 1281 4162 
Q 984 4106 628 3988 
L 628 4550 
Q 988 4650 1302 4700 
Q 1616 4750 1894 4750 
Q 2613 4750 3031 4423 
Q 3450 4097 3450 3541 
Q 3450 3153 3228 2886 
Q 3006 2619 2597 2516 
z
" transform="scale(0.015625)"/>
       </defs>
       <use xlink:href="#DejaVuSans-30"/>
       <use xlink:href="#DejaVuSans-2e" x="63.623047"/>
       <use xlink:href="#DejaVuSans-33" x="95.410156"/>
       <use xlink:href="#DejaVuSans-35" x="159.033203"/>
      </g>
     </g>
    </g>
    <g id="ytick_2">
     <g id="line2d_10">
      <g>
       <use xlink:href="#m28d1b673d6" x="230.4" y="648.371242" style="stroke: #000000; stroke-width: 0.8"/>
      </g>
     </g>
     <g id="text_11">
      <!-- 0.40 -->
      <g transform="translate(201.134375 652.170461) scale(0.1 -0.1)">
       <defs>
        <path id="DejaVuSans-34" d="M 2419 4116 
L 825 1625 
L 2419 1625 
L 2419 4116 
z
M 2253 4666 
L 3047 4666 
L 3047 1625 
L 3713 1625 
L 3713 1100 
L 3047 1100 
L 3047 0 
L 2419 0 
L 2419 1100 
L 313 1100 
L 313 1709 
L 2253 4666 
z
" transform="scale(0.015625)"/>
       </defs>
       <use xlink:href="#DejaVuSans-30"/>
       <use xlink:href="#DejaVuSans-2e" x="63.623047"/>
       <use xlink:href="#DejaVuSans-34" x="95.410156"/>
       <use xlink:href="#DejaVuSans-30" x="159.033203"/>
      </g>
     </g>
    </g>
    <g id="ytick_3">
     <g id="line2d_11">
      <g>
       <use xlink:href="#m28d1b673d6" x="230.4" y="541.289528" style="stroke: #000000; stroke-width: 0.8"/>
      </g>
     </g>
     <g id="text_12">
      <!-- 0.45 -->
      <g transform="translate(201.134375 545.088747) scale(0.1 -0.1)">
       <use xlink:href="#DejaVuSans-30"/>
       <use xlink:href="#DejaVuSans-2e" x="63.623047"/>
       <use xlink:href="#DejaVuSans-34" x="95.410156"/>
       <use xlink:href="#DejaVuSans-35" x="159.033203"/>
      </g>
     </g>
    </g>
    <g id="ytick_4">
     <g id="line2d_12">
      <g>
       <use xlink:href="#m28d1b673d6" x="230.4" y="434.207814" style="stroke: #000000; stroke-width: 0.8"/>
      </g>
     </g>
     <g id="text_13">
      <!-- 0.50 -->
      <g transform="translate(201.134375 438.007032) scale(0.1 -0.1)">
       <use xlink:href="#DejaVuSans-30"/>
       <use xlink:href="#DejaVuSans-2e" x="63.623047"/>
       <use xlink:href="#DejaVuSans-35" x="95.410156"/>
       <use xlink:href="#DejaVuSans-30" x="159.033203"/>
      </g>
     </g>
    </g>
    <g id="ytick_5">
     <g id="line2d_13">
      <g>
       <use xlink:href="#m28d1b673d6" x="230.4" y="327.1261" style="stroke: #000000; stroke-width: 0.8"/>
      </g>
     </g>
     <g id="text_14">
      <!-- 0.55 -->
      <g transform="translate(201.134375 330.925318) scale(0.1 -0.1)">
       <use xlink:href="#DejaVuSans-30"/>
       <use xlink:href="#DejaVuSans-2e" x="63.623047"/>
       <use xlink:href="#DejaVuSans-35" x="95.410156"/>
       <use xlink:href="#DejaVuSans-35" x="159.033203"/>
      </g>
     </g>
    </g>
    <g id="ytick_6">
     <g id="line2d_14">
      <g>
       <use xlink:href="#m28d1b673d6" x="230.4" y="220.044386" style="stroke: #000000; stroke-width: 0.8"/>
      </g>
     </g>
     <g id="text_15">
      <!-- 0.60 -->
      <g transform="translate(201.134375 223.843604) scale(0.1 -0.1)">
       <defs>
        <path id="DejaVuSans-36" d="M 2113 2584 
Q 1688 2584 1439 2293 
Q 1191 2003 1191 1497 
Q 1191 994 1439 701 
Q 1688 409 2113 409 
Q 2538 409 2786 701 
Q 3034 994 3034 1497 
Q 3034 2003 2786 2293 
Q 2538 2584 2113 2584 
z
M 3366 4563 
L 3366 3988 
Q 3128 4100 2886 4159 
Q 2644 4219 2406 4219 
Q 1781 4219 1451 3797 
Q 1122 3375 1075 2522 
Q 1259 2794 1537 2939 
Q 1816 3084 2150 3084 
Q 2853 3084 3261 2657 
Q 3669 2231 3669 1497 
Q 3669 778 3244 343 
Q 2819 -91 2113 -91 
Q 1303 -91 875 529 
Q 447 1150 447 2328 
Q 447 3434 972 4092 
Q 1497 4750 2381 4750 
Q 2619 4750 2861 4703 
Q 3103 4656 3366 4563 
z
" transform="scale(0.015625)"/>
       </defs>
       <use xlink:href="#DejaVuSans-30"/>
       <use xlink:href="#DejaVuSans-2e" x="63.623047"/>
       <use xlink:href="#DejaVuSans-36" x="95.410156"/>
       <use xlink:href="#DejaVuSans-30" x="159.033203"/>
      </g>
     </g>
    </g>
    <g id="text_16">
     <!-- score -->
     <g transform="translate(195.054688 495.930012) rotate(-90) scale(0.1 -0.1)">
      <defs>
       <path id="DejaVuSans-73" d="M 2834 3397 
L 2834 2853 
Q 2591 2978 2328 3040 
Q 2066 3103 1784 3103 
Q 1356 3103 1142 2972 
Q 928 2841 928 2578 
Q 928 2378 1081 2264 
Q 1234 2150 1697 2047 
L 1894 2003 
Q 2506 1872 2764 1633 
Q 3022 1394 3022 966 
Q 3022 478 2636 193 
Q 2250 -91 1575 -91 
Q 1294 -91 989 -36 
Q 684 19 347 128 
L 347 722 
Q 666 556 975 473 
Q 1284 391 1588 391 
Q 1994 391 2212 530 
Q 2431 669 2431 922 
Q 2431 1156 2273 1281 
Q 2116 1406 1581 1522 
L 1381 1569 
Q 847 1681 609 1914 
Q 372 2147 372 2553 
Q 372 3047 722 3315 
Q 1072 3584 1716 3584 
Q 2034 3584 2315 3537 
Q 2597 3491 2834 3397 
z
" transform="scale(0.015625)"/>
       <path id="DejaVuSans-63" d="M 3122 3366 
L 3122 2828 
Q 2878 2963 2633 3030 
Q 2388 3097 2138 3097 
Q 1578 3097 1268 2742 
Q 959 2388 959 1747 
Q 959 1106 1268 751 
Q 1578 397 2138 397 
Q 2388 397 2633 464 
Q 2878 531 3122 666 
L 3122 134 
Q 2881 22 2623 -34 
Q 2366 -91 2075 -91 
Q 1284 -91 818 406 
Q 353 903 353 1747 
Q 353 2603 823 3093 
Q 1294 3584 2113 3584 
Q 2378 3584 2631 3529 
Q 2884 3475 3122 3366 
z
" transform="scale(0.015625)"/>
       <path id="DejaVuSans-6f" d="M 1959 3097 
Q 1497 3097 1228 2736 
Q 959 2375 959 1747 
Q 959 1119 1226 758 
Q 1494 397 1959 397 
Q 2419 397 2687 759 
Q 2956 1122 2956 1747 
Q 2956 2369 2687 2733 
Q 2419 3097 1959 3097 
z
M 1959 3584 
Q 2709 3584 3137 3096 
Q 3566 2609 3566 1747 
Q 3566 888 3137 398 
Q 2709 -91 1959 -91 
Q 1206 -91 779 398 
Q 353 888 353 1747 
Q 353 2609 779 3096 
Q 1206 3584 1959 3584 
z
" transform="scale(0.015625)"/>
       <path id="DejaVuSans-72" d="M 2631 2963 
Q 2534 3019 2420 3045 
Q 2306 3072 2169 3072 
Q 1681 3072 1420 2755 
Q 1159 2438 1159 1844 
L 1159 0 
L 581 0 
L 581 3500 
L 1159 3500 
L 1159 2956 
Q 1341 3275 1631 3429 
Q 1922 3584 2338 3584 
Q 2397 3584 2469 3576 
Q 2541 3569 2628 3553 
L 2631 2963 
z
" transform="scale(0.015625)"/>
       <path id="DejaVuSans-65" d="M 3597 1894 
L 3597 1613 
L 953 1613 
Q 991 1019 1311 708 
Q 1631 397 2203 397 
Q 2534 397 2845 478 
Q 3156 559 3463 722 
L 3463 178 
Q 3153 47 2828 -22 
Q 2503 -91 2169 -91 
Q 1331 -91 842 396 
Q 353 884 353 1716 
Q 353 2575 817 3079 
Q 1281 3584 2069 3584 
Q 2775 3584 3186 3129 
Q 3597 2675 3597 1894 
z
M 3022 2063 
Q 3016 2534 2758 2815 
Q 2500 3097 2075 3097 
Q 1594 3097 1305 2825 
Q 1016 2553 972 2059 
L 3022 2063 
z
" transform="scale(0.015625)"/>
      </defs>
      <use xlink:href="#DejaVuSans-73"/>
      <use xlink:href="#DejaVuSans-63" x="52.099609"/>
      <use xlink:href="#DejaVuSans-6f" x="107.080078"/>
      <use xlink:href="#DejaVuSans-72" x="168.261719"/>
      <use xlink:href="#DejaVuSans-65" x="207.125"/>
     </g>
    </g>
   </g>
   <g id="line2d_15">
    <path d="M 295.330909 715.493489 
L 302.201905 716.700723 
L 309.0729 716.700723 
L 322.814892 719.115193 
L 329.685887 716.700723 
L 336.556883 716.700723 
L 343.427879 719.115193 
L 350.298874 720.322427 
L 364.040866 720.322427 
L 370.911861 722.736897 
L 377.782857 721.529662 
L 425.879827 721.529662 
L 432.750823 723.944131 
L 439.621818 727.565835 
L 446.492814 727.565835 
L 453.36381 728.77307 
L 467.105801 728.77307 
L 473.976797 731.187539 
L 480.847792 731.187539 
L 487.718788 732.394774 
L 494.589784 734.809243 
L 508.331775 732.394774 
L 515.202771 732.394774 
L 522.073766 734.809243 
L 528.944762 734.809243 
L 535.815758 737.223713 
L 549.557749 737.223713 
L 563.29974 734.809243 
L 570.170736 737.223713 
L 583.912727 737.223713 
L 590.783723 736.016478 
L 625.138701 736.016478 
L 632.009697 738.430947 
L 645.751688 736.016478 
L 659.49368 736.016478 
L 673.235671 738.430947 
L 680.106667 740.845417 
L 686.977662 742.052651 
L 714.461645 742.052651 
L 728.203636 744.467121 
L 735.074632 743.259886 
L 741.945628 745.674355 
L 748.816623 745.674355 
L 755.687619 744.467121 
L 762.558615 745.674355 
L 769.42961 744.467121 
L 776.300606 744.467121 
L 783.171602 742.052651 
L 796.913593 742.052651 
L 803.784589 740.845417 
L 810.655584 743.259886 
L 824.397576 740.845417 
L 831.268571 740.845417 
L 858.752554 745.674355 
L 865.62355 748.088825 
L 872.494545 746.88159 
L 879.365541 746.88159 
L 893.107532 749.296059 
L 899.978528 749.296059 
L 906.849524 744.467121 
L 913.720519 743.259886 
L 927.462511 743.259886 
L 934.333506 740.845417 
L 941.204502 743.259886 
L 948.075498 743.259886 
L 954.946494 742.052651 
L 961.817489 742.052651 
L 968.688485 743.259886 
L 975.559481 742.052651 
L 982.430476 744.467121 
L 989.301472 748.088825 
L 1009.914459 748.088825 
L 1016.785455 745.674355 
L 1023.65645 745.674355 
L 1037.398442 748.088825 
L 1044.269437 748.088825 
L 1051.140433 745.674355 
L 1058.011429 748.088825 
L 1064.882424 748.088825 
L 1071.75342 745.674355 
L 1078.624416 746.88159 
L 1085.495411 751.710529 
L 1092.366407 750.503294 
L 1099.237403 748.088825 
L 1106.108398 748.088825 
L 1112.979394 749.296059 
L 1119.85039 745.674355 
L 1126.721385 744.467121 
L 1133.592381 742.052651 
L 1147.334372 746.88159 
L 1154.205368 743.259886 
L 1161.076364 744.467121 
L 1167.947359 743.259886 
L 1174.818355 740.845417 
L 1181.689351 739.638182 
L 1188.560346 739.638182 
L 1195.431342 738.430947 
L 1202.302338 740.845417 
L 1209.173333 739.638182 
L 1216.044329 744.467121 
L 1222.915325 744.467121 
L 1229.78632 748.088825 
L 1236.657316 748.088825 
L 1243.528312 749.296059 
L 1250.399307 749.296059 
L 1257.270303 743.259886 
L 1264.141299 738.430947 
L 1271.012294 739.638182 
L 1277.88329 742.052651 
L 1284.754286 736.016478 
L 1298.496277 733.602009 
L 1305.367273 736.016478 
L 1319.109264 733.602009 
L 1325.98026 736.016478 
L 1332.851255 732.394774 
L 1339.722251 731.187539 
L 1353.464242 731.187539 
L 1367.206234 726.358601 
L 1374.077229 728.77307 
L 1380.948225 726.358601 
L 1387.819221 729.980305 
L 1394.690216 729.980305 
L 1401.561212 725.151366 
L 1408.432208 723.944131 
L 1415.303203 725.151366 
L 1422.174199 722.736897 
L 1429.045195 716.700723 
L 1435.91619 713.079019 
L 1442.787186 708.250081 
L 1449.658182 711.871785 
L 1456.529177 705.835612 
L 1463.400173 701.006673 
L 1470.271169 697.384969 
L 1477.142165 691.348796 
L 1484.01316 684.105388 
L 1490.884156 670.825806 
L 1497.755152 669.618572 
L 1504.626147 664.789633 
L 1511.497143 662.375164 
L 1518.368139 656.338991 
L 1525.239134 655.131756 
L 1538.981126 645.473879 
L 1545.852121 638.230471 
L 1552.723117 626.158124 
L 1559.594113 615.293012 
L 1566.465108 609.256839 
L 1573.336104 602.013431 
L 1580.2071 593.562788 
L 1587.078095 591.148319 
L 1593.949091 591.148319 
L 1593.949091 591.148319 
" clip-path="url(#pdd302d554e)" style="fill: none; stroke: #1f77b4; stroke-width: 1.5; stroke-linecap: square"/>
   </g>
   <g id="line2d_16">
    <path d="M 295.330909 618.069563 
L 302.201905 618.994842 
L 309.0729 618.994842 
L 322.814892 620.849501 
L 329.685887 619.54155 
L 336.556883 619.816118 
L 343.427879 621.680251 
L 350.298874 622.614393 
L 364.040866 622.614393 
L 370.911861 624.486845 
L 377.782857 623.831682 
L 405.26684 623.831682 
L 412.137835 624.114281 
L 425.879827 624.114281 
L 432.750823 625.995958 
L 439.621818 629.120597 
L 446.492814 629.120597 
L 453.36381 630.06942 
L 460.234805 630.363506 
L 467.105801 630.363506 
L 473.976797 632.268728 
L 480.847792 632.268728 
L 487.718788 633.824292 
L 494.589784 635.744827 
L 508.331775 634.428733 
L 515.202771 634.428733 
L 522.073766 636.356008 
L 528.944762 636.356008 
L 535.815758 638.289137 
L 542.686753 638.289137 
L 549.557749 638.599527 
L 563.29974 637.279762 
L 570.170736 639.223147 
L 583.912727 639.850585 
L 590.783723 639.188124 
L 597.654719 639.502511 
L 625.138701 639.502511 
L 632.009697 641.462744 
L 645.751688 640.134187 
L 659.49368 640.769762 
L 673.235671 642.744073 
L 680.106667 644.724496 
L 686.977662 645.717009 
L 693.848658 646.045184 
L 714.461645 646.045184 
L 728.203636 648.038432 
L 735.074632 647.372035 
L 741.945628 649.372006 
L 748.816623 649.372006 
L 755.687619 649.03998 
L 762.558615 650.382166 
L 769.42961 649.712908 
L 776.300606 649.712908 
L 783.171602 648.707712 
L 796.913593 648.707712 
L 803.784589 648.034507 
L 810.655584 650.057568 
L 824.397576 648.709039 
L 831.268571 649.047904 
L 851.881558 652.101721 
L 858.752554 653.470371 
L 865.62355 655.521372 
L 872.494545 655.197168 
L 879.365541 655.549904 
L 893.107532 657.615706 
L 899.978528 657.615706 
L 906.849524 654.897473 
L 913.720519 654.215188 
L 927.462511 654.215188 
L 934.333506 652.847326 
L 941.204502 654.923746 
L 948.075498 655.636883 
L 954.946494 654.950232 
L 961.817489 655.307709 
L 968.688485 657.077072 
L 975.559481 656.387123 
L 982.430476 658.860879 
L 989.301472 662.414745 
L 1003.043463 663.921062 
L 1009.914459 664.300753 
L 1016.785455 663.288098 
L 1023.65645 664.050428 
L 1037.398442 666.994149 
L 1044.269437 667.775311 
L 1051.140433 666.759011 
L 1058.011429 669.35347 
L 1064.882424 669.751347 
L 1071.75342 669.131982 
L 1078.624416 671.049521 
L 1085.495411 675.945932 
L 1092.366407 675.648512 
L 1099.237403 674.218552 
L 1106.108398 674.633078 
L 1112.979394 676.604408 
L 1119.85039 674.443311 
L 1126.721385 673.720438 
L 1133.592381 673.942994 
L 1147.334372 680.296225 
L 1154.205368 678.094992 
L 1161.076364 679.265699 
L 1167.947359 678.529728 
L 1174.818355 677.488273 
L 1181.689351 677.182465 
L 1188.560346 677.182465 
L 1195.431342 676.439339 
L 1202.302338 678.800938 
L 1209.173333 678.057262 
L 1216.044329 683.257592 
L 1222.915325 684.162405 
L 1229.78632 687.771071 
L 1236.657316 689.164276 
L 1243.528312 690.379467 
L 1250.399307 691.322141 
L 1257.270303 687.561962 
L 1264.141299 684.528704 
L 1271.012294 686.223383 
L 1277.88329 688.689054 
L 1284.754286 685.337537 
L 1291.625281 685.986348 
L 1298.496277 685.687597 
L 1305.367273 689.650834 
L 1319.109264 691.03823 
L 1325.98026 694.114887 
L 1332.851255 694.278447 
L 1339.722251 693.991854 
L 1346.593247 696.057731 
L 1353.464242 697.10304 
L 1360.335238 697.064335 
L 1367.206234 695.963115 
L 1374.077229 700.276431 
L 1380.948225 699.717801 
L 1387.819221 704.951054 
L 1394.690216 705.511019 
L 1401.561212 703.307846 
L 1408.432208 703.032201 
L 1415.303203 705.571569 
L 1422.174199 704.456279 
L 1429.045195 700.772932 
L 1435.91619 699.899285 
L 1442.787186 697.561542 
L 1449.658182 704.260382 
L 1456.529177 700.43307 
L 1463.400173 697.445398 
L 1470.271169 695.909761 
L 1477.142165 692.513647 
L 1484.01316 688.112909 
L 1490.884156 677.688277 
L 1497.755152 679.577194 
L 1504.626147 677.981442 
L 1511.497143 678.338621 
L 1518.368139 676.856033 
L 1525.239134 678.242106 
L 1532.11013 674.705013 
L 1538.981126 672.31836 
L 1545.852121 670.767417 
L 1552.723117 662.132747 
L 1559.594113 654.238733 
L 1566.465108 649.559388 
L 1573.336104 642.964592 
L 1580.2071 634.986028 
L 1587.078095 633.073854 
L 1593.949091 633.073854 
L 1593.949091 633.073854 
" clip-path="url(#pdd302d554e)" style="fill: none; stroke: #ff7f0e; stroke-width: 1.5; stroke-linecap: square"/>
   </g>
   <g id="line2d_17">
    <path d="M 295.330909 148.0932 
L 302.201905 150.507669 
L 309.0729 150.507669 
L 322.814892 155.336608 
L 329.685887 155.336608 
L 336.556883 157.751077 
L 343.427879 162.580016 
L 350.298874 164.994485 
L 364.040866 164.994485 
L 370.911861 169.823424 
L 405.26684 169.823424 
L 412.137835 172.237893 
L 425.879827 172.237893 
L 432.750823 177.066832 
L 439.621818 186.724709 
L 446.492814 186.724709 
L 460.234805 191.553648 
L 467.105801 191.553648 
L 473.976797 196.382586 
L 480.847792 196.382586 
L 487.718788 203.625994 
L 494.589784 208.454933 
L 515.202771 208.454933 
L 522.073766 213.283871 
L 528.944762 213.283871 
L 535.815758 218.11281 
L 542.686753 218.11281 
L 549.557749 220.527279 
L 563.29974 220.527279 
L 570.170736 225.356218 
L 583.912727 230.185157 
L 590.783723 230.185157 
L 597.654719 232.599626 
L 625.138701 232.599626 
L 632.009697 237.428565 
L 645.751688 237.428565 
L 673.235671 247.086442 
L 680.106667 251.915381 
L 693.848658 256.744319 
L 714.461645 256.744319 
L 728.203636 261.573258 
L 735.074632 261.573258 
L 741.945628 266.402196 
L 748.816623 266.402196 
L 755.687619 268.816666 
L 762.558615 273.645604 
L 776.300606 273.645604 
L 783.171602 276.060074 
L 803.784589 276.060074 
L 810.655584 280.889012 
L 824.397576 280.889012 
L 851.881558 290.54689 
L 865.62355 300.204767 
L 893.107532 309.862644 
L 934.333506 309.862644 
L 948.075498 319.520521 
L 954.946494 319.520521 
L 961.817489 321.934991 
L 968.688485 329.178399 
L 975.559481 329.178399 
L 982.430476 336.421806 
L 989.301472 346.079684 
L 1003.043463 355.737561 
L 1016.785455 360.5665 
L 1044.269437 379.882254 
L 1051.140433 382.296723 
L 1058.011429 389.540131 
L 1064.882424 391.954601 
L 1071.75342 396.783539 
L 1078.624416 404.026947 
L 1085.495411 416.099294 
L 1092.366407 418.513763 
L 1099.237403 418.513763 
L 1106.108398 420.928232 
L 1112.979394 428.17164 
L 1126.721385 428.17164 
L 1147.334372 457.145272 
L 1154.205368 457.145272 
L 1161.076364 459.559742 
L 1167.947359 459.559742 
L 1181.689351 464.38868 
L 1195.431342 464.38868 
L 1202.302338 469.217619 
L 1209.173333 469.217619 
L 1216.044329 481.289965 
L 1222.915325 486.118904 
L 1236.657316 500.60572 
L 1243.528312 503.020189 
L 1250.399307 507.849128 
L 1264.141299 507.849128 
L 1277.88329 517.507005 
L 1284.754286 519.921474 
L 1291.625281 527.164882 
L 1298.496277 529.579352 
L 1305.367273 541.651698 
L 1325.98026 563.381922 
L 1332.851255 575.454269 
L 1339.722251 577.868738 
L 1346.593247 587.526615 
L 1353.464242 592.355554 
L 1360.335238 599.598962 
L 1367.206234 602.013431 
L 1374.077229 614.085778 
L 1380.948225 618.914716 
L 1387.819221 630.987063 
L 1394.690216 633.401532 
L 1401.561212 638.230471 
L 1408.432208 640.64494 
L 1415.303203 647.888348 
L 1429.045195 652.717287 
L 1435.91619 659.960695 
L 1442.787186 664.789633 
L 1449.658182 681.690918 
L 1463.400173 686.519857 
L 1484.01316 701.006673 
L 1490.884156 701.006673 
L 1497.755152 713.079019 
L 1511.497143 732.394774 
L 1518.368139 746.88159 
L 1525.239134 756.539467 
L 1532.11013 758.953936 
L 1538.981126 766.197344 
L 1545.852121 785.513099 
L 1559.594113 804.828853 
L 1566.465108 809.657792 
L 1587.078095 816.9012 
L 1593.949091 816.9012 
L 1593.949091 816.9012 
" clip-path="url(#pdd302d554e)" style="fill: none; stroke: #2ca02c; stroke-width: 1.5; stroke-linecap: square"/>
   </g>
   <g id="line2d_18">
    <path d="M 295.330909 432.299049 
L 302.201905 433.73041 
L 309.0729 433.73041 
L 322.814892 436.596964 
L 329.685887 435.642584 
L 336.556883 436.601236 
L 343.427879 439.478055 
L 350.298874 440.918396 
L 364.040866 440.918396 
L 370.911861 443.802949 
L 377.782857 443.327278 
L 405.26684 443.327278 
L 412.137835 444.296266 
L 425.879827 444.296266 
L 432.750823 447.19033 
L 439.621818 452.520618 
L 446.492814 452.520618 
L 453.36381 453.975262 
L 460.234805 454.958213 
L 467.105801 454.958213 
L 473.976797 457.874949 
L 480.847792 457.874949 
L 487.718788 461.317108 
L 494.589784 464.248838 
L 508.331775 463.306106 
L 515.202771 463.306106 
L 522.073766 466.244954 
L 528.944762 466.244954 
L 535.815758 469.189136 
L 542.686753 469.189136 
L 549.557749 470.193494 
L 563.29974 469.252738 
L 570.170736 472.207694 
L 583.912727 474.229238 
L 590.783723 473.759199 
L 597.654719 474.772772 
L 625.138701 474.772772 
L 632.009697 477.74492 
L 645.751688 476.805478 
L 659.49368 478.845633 
L 673.235671 481.832418 
L 680.106667 484.824686 
L 686.977662 486.322881 
L 693.848658 487.354988 
L 714.461645 487.354988 
L 728.203636 490.359219 
L 735.074632 489.892276 
L 741.945628 492.902996 
L 748.816623 492.902996 
L 755.687619 493.478135 
L 762.558615 496.033284 
L 769.42961 495.567021 
L 776.300606 495.567021 
L 783.171602 495.68065 
L 796.913593 495.68065 
L 803.784589 495.213144 
L 810.655584 498.248338 
L 824.397576 497.313975 
L 831.268571 498.367317 
L 851.881558 502.939333 
L 858.752554 505.529123 
L 865.62355 508.590916 
L 872.494545 509.195008 
L 879.365541 510.265854 
L 893.107532 513.342102 
L 899.978528 513.342102 
L 906.849524 511.483277 
L 913.720519 511.017482 
L 927.462511 511.017482 
L 934.333506 510.08458 
L 941.204502 513.173662 
L 948.075498 515.337959 
L 954.946494 514.872005 
L 961.817489 515.957284 
L 968.688485 519.69109 
L 975.559481 519.225432 
L 982.430476 523.442575 
L 989.301472 529.244741 
L 1003.043463 533.688206 
L 1009.914459 534.804369 
L 1016.785455 534.996622 
L 1023.65645 537.240004 
L 1037.398442 542.677529 
L 1044.269437 544.946479 
L 1051.140433 545.159951 
L 1058.011429 549.510673 
L 1064.882424 550.657237 
L 1071.75342 552.034033 
L 1078.624416 555.962532 
L 1085.495411 563.62431 
L 1092.366407 564.336397 
L 1099.237403 563.417308 
L 1106.108398 564.590928 
L 1112.979394 568.584867 
L 1119.85039 567.205721 
L 1126.721385 566.745102 
L 1133.592381 570.57051 
L 1147.334372 582.016734 
L 1154.205368 580.639795 
L 1161.076364 582.310881 
L 1167.947359 581.851591 
L 1174.818355 582.146142 
L 1181.689351 582.902701 
L 1188.560346 582.902701 
L 1195.431342 582.441871 
L 1202.302338 585.804237 
L 1209.173333 585.344167 
L 1216.044329 593.32522 
L 1222.915325 595.799938 
L 1229.78632 600.899248 
L 1236.657316 604.651169 
L 1243.528312 606.361429 
L 1250.399307 608.880113 
L 1257.270303 606.604479 
L 1264.141299 604.775633 
L 1271.012294 607.765332 
L 1277.88329 611.220443 
L 1284.754286 610.210017 
L 1291.625281 613.594447 
L 1298.496277 614.422536 
L 1305.367273 621.808336 
L 1319.109264 628.749814 
L 1325.98026 633.624464 
L 1332.851255 638.922855 
L 1339.722251 639.809211 
L 1346.593247 645.203479 
L 1353.464242 647.917746 
L 1360.335238 651.10379 
L 1367.206234 651.566008 
L 1374.077229 659.371611 
L 1380.948225 661.246338 
L 1387.819221 669.602961 
L 1394.690216 671.012036 
L 1408.432208 673.006427 
L 1415.303203 677.734236 
L 1422.174199 678.265374 
L 1429.045195 677.44214 
L 1435.91619 680.413295 
L 1442.787186 681.501496 
L 1449.658182 693.13247 
L 1456.529177 692.351232 
L 1463.400173 692.019331 
L 1470.271169 693.635688 
L 1477.142165 694.349831 
L 1484.01316 694.611073 
L 1490.884156 689.51413 
L 1497.755152 696.675076 
L 1504.626147 700.981493 
L 1511.497143 706.280234 
L 1518.368139 713.414402 
L 1525.239134 719.336638 
L 1532.11013 719.080782 
L 1538.981126 722.061884 
L 1545.852121 732.377235 
L 1552.723117 734.351174 
L 1559.594113 736.844445 
L 1566.465108 737.872376 
L 1573.336104 736.713656 
L 1580.2071 735.059644 
L 1587.078095 735.817935 
L 1593.949091 735.817935 
L 1593.949091 735.817935 
" clip-path="url(#pdd302d554e)" style="fill: none; stroke: #d62728; stroke-width: 1.5; stroke-linecap: square"/>
   </g>
   <g id="patch_3">
    <path d="M 230.4 850.3416 
L 230.4 114.6528 
" style="fill: none; stroke: #000000; stroke-width: 0.8; stroke-linejoin: miter; stroke-linecap: square"/>
   </g>
   <g id="patch_4">
    <path d="M 1658.88 850.3416 
L 1658.88 114.6528 
" style="fill: none; stroke: #000000; stroke-width: 0.8; stroke-linejoin: miter; stroke-linecap: square"/>
   </g>
   <g id="patch_5">
    <path d="M 230.4 850.3416 
L 1658.88 850.3416 
" style="fill: none; stroke: #000000; stroke-width: 0.8; stroke-linejoin: miter; stroke-linecap: square"/>
   </g>
   <g id="patch_6">
    <path d="M 230.4 114.6528 
L 1658.88 114.6528 
" style="fill: none; stroke: #000000; stroke-width: 0.8; stroke-linejoin: miter; stroke-linecap: square"/>
   </g>
   <g id="legend_1">
    <g id="patch_7">
     <path d="M 1574.76125 181.3653 
L 1651.88 181.3653 
Q 1653.88 181.3653 1653.88 179.3653 
L 1653.88 121.6528 
Q 1653.88 119.6528 1651.88 119.6528 
L 1574.76125 119.6528 
Q 1572.76125 119.6528 1572.76125 121.6528 
L 1572.76125 179.3653 
Q 1572.76125 181.3653 1574.76125 181.3653 
z
" style="fill: #ffffff; opacity: 0.8; stroke: #cccccc; stroke-linejoin: miter"/>
    </g>
    <g id="line2d_19">
     <path d="M 1576.76125 127.751237 
L 1586.76125 127.751237 
L 1596.76125 127.751237 
" style="fill: none; stroke: #1f77b4; stroke-width: 1.5; stroke-linecap: square"/>
    </g>
    <g id="text_17">
     <!-- accuracy -->
     <g transform="translate(1604.76125 131.251237) scale(0.1 -0.1)">
      <defs>
       <path id="DejaVuSans-75" d="M 544 1381 
L 544 3500 
L 1119 3500 
L 1119 1403 
Q 1119 906 1312 657 
Q 1506 409 1894 409 
Q 2359 409 2629 706 
Q 2900 1003 2900 1516 
L 2900 3500 
L 3475 3500 
L 3475 0 
L 2900 0 
L 2900 538 
Q 2691 219 2414 64 
Q 2138 -91 1772 -91 
Q 1169 -91 856 284 
Q 544 659 544 1381 
z
M 1991 3584 
L 1991 3584 
z
" transform="scale(0.015625)"/>
       <path id="DejaVuSans-79" d="M 2059 -325 
Q 1816 -950 1584 -1140 
Q 1353 -1331 966 -1331 
L 506 -1331 
L 506 -850 
L 844 -850 
Q 1081 -850 1212 -737 
Q 1344 -625 1503 -206 
L 1606 56 
L 191 3500 
L 800 3500 
L 1894 763 
L 2988 3500 
L 3597 3500 
L 2059 -325 
z
" transform="scale(0.015625)"/>
      </defs>
      <use xlink:href="#DejaVuSans-61"/>
      <use xlink:href="#DejaVuSans-63" x="61.279297"/>
      <use xlink:href="#DejaVuSans-63" x="116.259766"/>
      <use xlink:href="#DejaVuSans-75" x="171.240234"/>
      <use xlink:href="#DejaVuSans-72" x="234.619141"/>
      <use xlink:href="#DejaVuSans-61" x="275.732422"/>
      <use xlink:href="#DejaVuSans-63" x="337.011719"/>
      <use xlink:href="#DejaVuSans-79" x="391.992188"/>
     </g>
    </g>
    <g id="line2d_20">
     <path d="M 1576.76125 142.429362 
L 1586.76125 142.429362 
L 1596.76125 142.429362 
" style="fill: none; stroke: #ff7f0e; stroke-width: 1.5; stroke-linecap: square"/>
    </g>
    <g id="text_18">
     <!-- precision -->
     <g transform="translate(1604.76125 145.929362) scale(0.1 -0.1)">
      <defs>
       <path id="DejaVuSans-69" d="M 603 3500 
L 1178 3500 
L 1178 0 
L 603 0 
L 603 3500 
z
M 603 4863 
L 1178 4863 
L 1178 4134 
L 603 4134 
L 603 4863 
z
" transform="scale(0.015625)"/>
       <path id="DejaVuSans-6e" d="M 3513 2113 
L 3513 0 
L 2938 0 
L 2938 2094 
Q 2938 2591 2744 2837 
Q 2550 3084 2163 3084 
Q 1697 3084 1428 2787 
Q 1159 2491 1159 1978 
L 1159 0 
L 581 0 
L 581 3500 
L 1159 3500 
L 1159 2956 
Q 1366 3272 1645 3428 
Q 1925 3584 2291 3584 
Q 2894 3584 3203 3211 
Q 3513 2838 3513 2113 
z
" transform="scale(0.015625)"/>
      </defs>
      <use xlink:href="#DejaVuSans-70"/>
      <use xlink:href="#DejaVuSans-72" x="63.476562"/>
      <use xlink:href="#DejaVuSans-65" x="102.339844"/>
      <use xlink:href="#DejaVuSans-63" x="163.863281"/>
      <use xlink:href="#DejaVuSans-69" x="218.84375"/>
      <use xlink:href="#DejaVuSans-73" x="246.626953"/>
      <use xlink:href="#DejaVuSans-69" x="298.726562"/>
      <use xlink:href="#DejaVuSans-6f" x="326.509766"/>
      <use xlink:href="#DejaVuSans-6e" x="387.691406"/>
     </g>
    </g>
    <g id="line2d_21">
     <path d="M 1576.76125 157.107487 
L 1586.76125 157.107487 
L 1596.76125 157.107487 
" style="fill: none; stroke: #2ca02c; stroke-width: 1.5; stroke-linecap: square"/>
    </g>
    <g id="text_19">
     <!-- recall -->
     <g transform="translate(1604.76125 160.607487) scale(0.1 -0.1)">
      <use xlink:href="#DejaVuSans-72"/>
      <use xlink:href="#DejaVuSans-65" x="38.863281"/>
      <use xlink:href="#DejaVuSans-63" x="100.386719"/>
      <use xlink:href="#DejaVuSans-61" x="155.367188"/>
      <use xlink:href="#DejaVuSans-6c" x="216.646484"/>
      <use xlink:href="#DejaVuSans-6c" x="244.429688"/>
     </g>
    </g>
    <g id="line2d_22">
     <path d="M 1576.76125 171.785612 
L 1586.76125 171.785612 
L 1596.76125 171.785612 
" style="fill: none; stroke: #d62728; stroke-width: 1.5; stroke-linecap: square"/>
    </g>
    <g id="text_20">
     <!-- f1 -->
     <g transform="translate(1604.76125 175.285612) scale(0.1 -0.1)">
      <defs>
       <path id="DejaVuSans-66" d="M 2375 4863 
L 2375 4384 
L 1825 4384 
Q 1516 4384 1395 4259 
Q 1275 4134 1275 3809 
L 1275 3500 
L 2222 3500 
L 2222 3053 
L 1275 3053 
L 1275 0 
L 697 0 
L 697 3053 
L 147 3053 
L 147 3500 
L 697 3500 
L 697 3744 
Q 697 4328 969 4595 
Q 1241 4863 1831 4863 
L 2375 4863 
z
" transform="scale(0.015625)"/>
       <path id="DejaVuSans-31" d="M 794 531 
L 1825 531 
L 1825 4091 
L 703 3866 
L 703 4441 
L 1819 4666 
L 2450 4666 
L 2450 531 
L 3481 531 
L 3481 0 
L 794 0 
L 794 531 
z
" transform="scale(0.015625)"/>
      </defs>
      <use xlink:href="#DejaVuSans-66"/>
      <use xlink:href="#DejaVuSans-31" x="35.205078"/>
     </g>
    </g>
   </g>
  </g>
 </g>
 <defs>
  <clipPath id="pdd302d554e">
   <rect x="230.4" y="114.6528" width="1428.48" height="735.6888"/>
  </clipPath>
 </defs>
</svg>
